<svg xmlns="http://www.w3.org/2000/svg" xmlns:xlink="http://www.w3.org/1999/xlink" viewBox="0 0 1268.35 502.93"><defs><style>.cls-1{fill:url(#Degradado_sin_nombre_148);}.cls-2{fill:url(#Degradado_sin_nombre_148-2);}.cls-3{fill:url(#Degradado_sin_nombre_148-3);}.cls-4{fill:url(#Degradado_sin_nombre_148-4);}.cls-5{fill:url(#Degradado_sin_nombre_148-5);}.cls-6{fill:url(#Degradado_sin_nombre_148-6);}.cls-7{fill:url(#Degradado_sin_nombre_148-7);}.cls-8{fill:url(#Degradado_sin_nombre_148-8);}.cls-9{fill:url(#Degradado_sin_nombre_148-9);}.cls-10{fill:url(#Degradado_sin_nombre_148-10);}.cls-11{fill:url(#Degradado_sin_nombre_148-11);}.cls-12{fill:url(#Degradado_sin_nombre_148-12);}.cls-13{fill:url(#Degradado_sin_nombre_148-13);}.cls-14{fill:url(#Degradado_sin_nombre_148-14);}.cls-15{fill:url(#Degradado_sin_nombre_148-15);}.cls-16{fill:url(#Degradado_sin_nombre_148-16);}.cls-17{fill:url(#Degradado_sin_nombre_148-17);}.cls-18{fill:url(#Degradado_sin_nombre_148-18);}.cls-19{fill:url(#Degradado_sin_nombre_148-19);}.cls-20{fill:url(#Degradado_sin_nombre_148-20);}.cls-21{fill:url(#Degradado_sin_nombre_148-21);}.cls-22{fill:url(#Degradado_sin_nombre_148-22);}.cls-23{fill:url(#Degradado_sin_nombre_148-23);}.cls-24{fill:url(#Degradado_sin_nombre_148-24);}.cls-25{fill:url(#Degradado_sin_nombre_148-25);}.cls-26{fill:url(#Degradado_sin_nombre_148-26);}.cls-27{fill:url(#Degradado_sin_nombre_148-27);}.cls-28{fill:url(#Degradado_sin_nombre_148-28);}.cls-29{fill:url(#Degradado_sin_nombre_148-29);}.cls-30{fill:url(#Degradado_sin_nombre_148-30);}.cls-31{fill:url(#Degradado_sin_nombre_148-31);}.cls-32{fill:url(#Degradado_sin_nombre_148-32);}.cls-33{fill:url(#Degradado_sin_nombre_148-33);}.cls-34{fill:url(#Degradado_sin_nombre_148-34);}.cls-35{fill:url(#Degradado_sin_nombre_148-35);}.cls-36{fill:url(#Degradado_sin_nombre_148-36);}.cls-37{fill:url(#Degradado_sin_nombre_148-37);}.cls-38{fill:url(#Degradado_sin_nombre_148-38);}.cls-39{fill:url(#Degradado_sin_nombre_148-39);}.cls-40{fill:url(#Degradado_sin_nombre_148-40);}.cls-41{fill:url(#Degradado_sin_nombre_148-41);}.cls-42{fill:url(#Degradado_sin_nombre_148-42);}.cls-43{fill:url(#Degradado_sin_nombre_148-43);}.cls-44{fill:url(#Degradado_sin_nombre_148-44);}.cls-45{fill:url(#Degradado_sin_nombre_148-45);}.cls-46{fill:url(#Degradado_sin_nombre_148-46);}.cls-47{fill:url(#Degradado_sin_nombre_148-47);}.cls-48{fill:url(#Degradado_sin_nombre_148-48);}.cls-49{fill:url(#Degradado_sin_nombre_148-49);}.cls-50{fill:url(#Degradado_sin_nombre_148-50);}.cls-51{fill:url(#Degradado_sin_nombre_148-51);}.cls-52{fill:url(#Degradado_sin_nombre_148-52);}.cls-53{fill:url(#Degradado_sin_nombre_148-53);}.cls-54{fill:url(#Degradado_sin_nombre_148-54);}.cls-55{fill:url(#Degradado_sin_nombre_148-55);}.cls-56{fill:url(#Degradado_sin_nombre_148-56);}.cls-57{fill:url(#Degradado_sin_nombre_148-57);}.cls-58{fill:url(#Degradado_sin_nombre_148-58);}.cls-59{fill:url(#Degradado_sin_nombre_148-59);}.cls-60{fill:url(#Degradado_sin_nombre_148-60);}.cls-61{fill:url(#Degradado_sin_nombre_148-61);}.cls-62{fill:url(#Degradado_sin_nombre_148-62);}.cls-63{fill:url(#Degradado_sin_nombre_148-63);}.cls-64{fill:url(#Degradado_sin_nombre_148-64);}.cls-65{fill:url(#Degradado_sin_nombre_148-65);}.cls-66{fill:url(#Degradado_sin_nombre_148-66);}.cls-67{fill:url(#Degradado_sin_nombre_148-67);}.cls-68{fill:url(#Degradado_sin_nombre_148-68);}.cls-69{fill:url(#Degradado_sin_nombre_148-69);}.cls-70{fill:url(#Degradado_sin_nombre_148-70);}.cls-71{fill:#fff;}.cls-72{fill:#f49f1c;}.cls-73{fill:url(#Degradado_sin_nombre_133);}</style><linearGradient id="Degradado_sin_nombre_148" x1="16.37" y1="359.04" x2="16.37" y2="143.88" gradientUnits="userSpaceOnUse"><stop offset="0" stop-color="#bde2f4"/><stop offset="0.52" stop-color="#e1f4ff"/><stop offset="1" stop-color="#bde2f4"/></linearGradient><linearGradient id="Degradado_sin_nombre_148-2" x1="22.4" y1="371.21" x2="22.4" y2="131.72" xlink:href="#Degradado_sin_nombre_148"/><linearGradient id="Degradado_sin_nombre_148-3" x1="6" y1="332.85" x2="6" y2="170.08" xlink:href="#Degradado_sin_nombre_148"/><linearGradient id="Degradado_sin_nombre_148-4" x1="10.91" y1="346.3" x2="10.91" y2="156.62" xlink:href="#Degradado_sin_nombre_148"/><linearGradient id="Degradado_sin_nombre_148-5" x1="28.42" y1="381.97" x2="28.42" y2="120.95" xlink:href="#Degradado_sin_nombre_148"/><linearGradient id="Degradado_sin_nombre_148-6" x1="34.41" y1="391.33" x2="34.41" y2="111.59" xlink:href="#Degradado_sin_nombre_148"/><linearGradient id="Degradado_sin_nombre_148-7" x1="53.62" y1="416.88" x2="53.62" y2="86.05" xlink:href="#Degradado_sin_nombre_148"/><linearGradient id="Degradado_sin_nombre_148-8" x1="46.76" y1="408.61" x2="46.76" y2="94.32" xlink:href="#Degradado_sin_nombre_148"/><linearGradient id="Degradado_sin_nombre_148-9" x1="40.19" y1="399.8" x2="40.19" y2="103.13" xlink:href="#Degradado_sin_nombre_148"/><linearGradient id="Degradado_sin_nombre_148-10" x1="60.2" y1="424.12" x2="60.2" y2="78.81" xlink:href="#Degradado_sin_nombre_148"/><linearGradient id="Degradado_sin_nombre_148-11" x1="82.54" y1="445.08" x2="82.54" y2="57.85" xlink:href="#Degradado_sin_nombre_148"/><linearGradient id="Degradado_sin_nombre_148-12" x1="90.13" y1="451.12" x2="90.13" y2="51.81" xlink:href="#Degradado_sin_nombre_148"/><linearGradient id="Degradado_sin_nombre_148-13" x1="67.37" y1="431.39" x2="67.37" y2="71.53" xlink:href="#Degradado_sin_nombre_148"/><linearGradient id="Degradado_sin_nombre_148-14" x1="74.96" y1="438.51" x2="74.96" y2="64.42" xlink:href="#Degradado_sin_nombre_148"/><linearGradient id="Degradado_sin_nombre_148-15" x1="112.71" y1="466.58" x2="112.71" y2="36.35" xlink:href="#Degradado_sin_nombre_148"/><linearGradient id="Degradado_sin_nombre_148-16" x1="120.3" y1="470.99" x2="120.3" y2="31.94" xlink:href="#Degradado_sin_nombre_148"/><linearGradient id="Degradado_sin_nombre_148-17" x1="97.53" y1="456.6" x2="97.53" y2="46.33" xlink:href="#Degradado_sin_nombre_148"/><linearGradient id="Degradado_sin_nombre_148-18" x1="105.12" y1="461.77" x2="105.12" y2="41.16" xlink:href="#Degradado_sin_nombre_148"/><linearGradient id="Degradado_sin_nombre_148-19" x1="143.16" y1="482.32" x2="143.16" y2="20.61" xlink:href="#Degradado_sin_nombre_148"/><linearGradient id="Degradado_sin_nombre_148-20" x1="127.98" y1="475.14" x2="127.98" y2="27.79" xlink:href="#Degradado_sin_nombre_148"/><linearGradient id="Degradado_sin_nombre_148-21" x1="135.57" y1="478.88" x2="135.57" y2="24.05" xlink:href="#Degradado_sin_nombre_148"/><linearGradient id="Degradado_sin_nombre_148-22" x1="150.47" y1="485.36" x2="150.47" y2="17.57" xlink:href="#Degradado_sin_nombre_148"/><linearGradient id="Degradado_sin_nombre_148-23" x1="173.34" y1="493.15" x2="173.34" y2="9.77" xlink:href="#Degradado_sin_nombre_148"/><linearGradient id="Degradado_sin_nombre_148-24" x1="158.16" y1="488.25" x2="158.16" y2="14.68" xlink:href="#Degradado_sin_nombre_148"/><linearGradient id="Degradado_sin_nombre_148-25" x1="165.75" y1="490.83" x2="165.75" y2="12.1" xlink:href="#Degradado_sin_nombre_148"/><linearGradient id="Degradado_sin_nombre_148-26" x1="195.81" y1="498.5" x2="195.81" y2="4.43" xlink:href="#Degradado_sin_nombre_148"/><linearGradient id="Degradado_sin_nombre_148-27" x1="180.63" y1="495.14" x2="180.63" y2="7.79" xlink:href="#Degradado_sin_nombre_148"/><linearGradient id="Degradado_sin_nombre_148-28" x1="188.22" y1="496.94" x2="188.22" y2="5.99" xlink:href="#Degradado_sin_nombre_148"/><linearGradient id="Degradado_sin_nombre_148-29" x1="203.11" y1="499.78" x2="203.11" y2="3.15" xlink:href="#Degradado_sin_nombre_148"/><linearGradient id="Degradado_sin_nombre_148-30" x1="225.98" y1="502.36" x2="225.98" y2="0.57" xlink:href="#Degradado_sin_nombre_148"/><linearGradient id="Degradado_sin_nombre_148-31" x1="210.8" y1="500.9" x2="210.8" y2="2.03" xlink:href="#Degradado_sin_nombre_148"/><linearGradient id="Degradado_sin_nombre_148-32" x1="218.39" y1="501.74" x2="218.39" y2="1.18" xlink:href="#Degradado_sin_nombre_148"/><linearGradient id="Degradado_sin_nombre_148-33" x1="241.43" y1="502.93" x2="241.43" y2="0" xlink:href="#Degradado_sin_nombre_148"/><linearGradient id="Degradado_sin_nombre_148-34" x1="233.84" y1="502.76" x2="233.84" y2="0.16" xlink:href="#Degradado_sin_nombre_148"/><linearGradient id="Degradado_sin_nombre_148-35" x1="489.86" y1="314.62" x2="489.86" y2="188.31" xlink:href="#Degradado_sin_nombre_148"/><linearGradient id="Degradado_sin_nombre_148-36" x1="474.61" y1="358.09" x2="474.61" y2="144.84" xlink:href="#Degradado_sin_nombre_148"/><linearGradient id="Degradado_sin_nombre_148-37" x1="468.58" y1="370.36" x2="468.58" y2="132.57" xlink:href="#Degradado_sin_nombre_148"/><linearGradient id="Degradado_sin_nombre_148-38" x1="484.98" y1="331.54" x2="484.98" y2="171.39" xlink:href="#Degradado_sin_nombre_148"/><linearGradient id="Degradado_sin_nombre_148-39" x1="480.07" y1="345.21" x2="480.07" y2="157.71" xlink:href="#Degradado_sin_nombre_148"/><linearGradient id="Degradado_sin_nombre_148-40" x1="462.56" y1="381.22" x2="462.56" y2="121.7" xlink:href="#Degradado_sin_nombre_148"/><linearGradient id="Degradado_sin_nombre_148-41" x1="456.57" y1="390.66" x2="456.57" y2="112.27" xlink:href="#Degradado_sin_nombre_148"/><linearGradient id="Degradado_sin_nombre_148-42" x1="437.36" y1="416.38" x2="437.36" y2="86.55" xlink:href="#Degradado_sin_nombre_148"/><linearGradient id="Degradado_sin_nombre_148-43" x1="444.21" y1="408.06" x2="444.21" y2="94.87" xlink:href="#Degradado_sin_nombre_148"/><linearGradient id="Degradado_sin_nombre_148-44" x1="450.79" y1="399.19" x2="450.79" y2="103.74" xlink:href="#Degradado_sin_nombre_148"/><linearGradient id="Degradado_sin_nombre_148-45" x1="430.78" y1="423.64" x2="430.78" y2="79.29" xlink:href="#Degradado_sin_nombre_148"/><linearGradient id="Degradado_sin_nombre_148-46" x1="408.43" y1="444.7" x2="408.43" y2="58.23" xlink:href="#Degradado_sin_nombre_148"/><linearGradient id="Degradado_sin_nombre_148-47" x1="400.84" y1="450.78" x2="400.84" y2="52.15" xlink:href="#Degradado_sin_nombre_148"/><linearGradient id="Degradado_sin_nombre_148-48" x1="423.61" y1="430.96" x2="423.61" y2="71.97" xlink:href="#Degradado_sin_nombre_148"/><linearGradient id="Degradado_sin_nombre_148-49" x1="416.02" y1="438.12" x2="416.02" y2="64.81" xlink:href="#Degradado_sin_nombre_148"/><linearGradient id="Degradado_sin_nombre_148-50" x1="378.27" y1="466.31" x2="378.27" y2="36.62" xlink:href="#Degradado_sin_nombre_148"/><linearGradient id="Degradado_sin_nombre_148-51" x1="370.68" y1="470.74" x2="370.68" y2="32.19" xlink:href="#Degradado_sin_nombre_148"/><linearGradient id="Degradado_sin_nombre_148-52" x1="393.45" y1="456.28" x2="393.45" y2="46.65" xlink:href="#Degradado_sin_nombre_148"/><linearGradient id="Degradado_sin_nombre_148-53" x1="385.86" y1="461.47" x2="385.86" y2="41.46" xlink:href="#Degradado_sin_nombre_148"/><linearGradient id="Degradado_sin_nombre_148-54" x1="347.82" y1="482.12" x2="347.82" y2="20.81" xlink:href="#Degradado_sin_nombre_148"/><linearGradient id="Degradado_sin_nombre_148-55" x1="363" y1="474.9" x2="363" y2="28.03" xlink:href="#Degradado_sin_nombre_148"/><linearGradient id="Degradado_sin_nombre_148-56" x1="355.41" y1="478.67" x2="355.41" y2="24.26" xlink:href="#Degradado_sin_nombre_148"/><linearGradient id="Degradado_sin_nombre_148-57" x1="340.51" y1="485.18" x2="340.51" y2="17.75" xlink:href="#Degradado_sin_nombre_148"/><linearGradient id="Degradado_sin_nombre_148-58" x1="317.64" y1="493.02" x2="317.64" y2="9.91" xlink:href="#Degradado_sin_nombre_148"/><linearGradient id="Degradado_sin_nombre_148-59" x1="332.82" y1="488.09" x2="332.82" y2="14.84" xlink:href="#Degradado_sin_nombre_148"/><linearGradient id="Degradado_sin_nombre_148-60" x1="325.23" y1="490.68" x2="325.23" y2="12.25" xlink:href="#Degradado_sin_nombre_148"/><linearGradient id="Degradado_sin_nombre_148-61" x1="295.17" y1="498.41" x2="295.17" y2="4.51" xlink:href="#Degradado_sin_nombre_148"/><linearGradient id="Degradado_sin_nombre_148-62" x1="310.35" y1="495.03" x2="310.35" y2="7.9" xlink:href="#Degradado_sin_nombre_148"/><linearGradient id="Degradado_sin_nombre_148-63" x1="302.76" y1="496.84" x2="302.76" y2="6.09" xlink:href="#Degradado_sin_nombre_148"/><linearGradient id="Degradado_sin_nombre_148-64" x1="287.86" y1="499.71" x2="287.86" y2="3.22" xlink:href="#Degradado_sin_nombre_148"/><linearGradient id="Degradado_sin_nombre_148-65" x1="265" y1="502.33" x2="265" y2="0.6" xlink:href="#Degradado_sin_nombre_148"/><linearGradient id="Degradado_sin_nombre_148-66" x1="280.18" y1="500.84" x2="280.18" y2="2.09" xlink:href="#Degradado_sin_nombre_148"/><linearGradient id="Degradado_sin_nombre_148-67" x1="272.59" y1="501.7" x2="272.59" y2="1.22" xlink:href="#Degradado_sin_nombre_148"/><linearGradient id="Degradado_sin_nombre_148-68" x1="249.55" y1="502.92" x2="249.55" y2="0.01" xlink:href="#Degradado_sin_nombre_148"/><linearGradient id="Degradado_sin_nombre_148-69" x1="257.14" y1="502.75" x2="257.14" y2="0.18" xlink:href="#Degradado_sin_nombre_148"/><linearGradient id="Degradado_sin_nombre_148-70" x1="1.11" y1="316.27" x2="1.11" y2="186.66" xlink:href="#Degradado_sin_nombre_148"/><radialGradient id="Degradado_sin_nombre_133" cx="982.33" cy="176.07" r="359.31" gradientUnits="userSpaceOnUse"><stop offset="0.03" stop-color="#12486a"/><stop offset="0.48" stop-color="#2467a4"/><stop offset="0.95" stop-color="#154466"/></radialGradient></defs><g id="Capa_2" data-name="Capa 2"><g id="Variantes"><g id="principal"><g id="world"><g id="circle"><path class="cls-1" d="M14.84,150.61V352.32q1.48,3.39,3.06,6.72V143.88Q16.33,147.23,14.84,150.61Z"/><path class="cls-2" d="M20.72,138.12V364.81c1.09,2.15,2.2,4.28,3.35,6.4V131.72C22.92,133.83,21.81,136,20.72,138.12Z"/><path class="cls-3" d="M4.75,177.83V325.09c.79,2.61,1.63,5.19,2.5,7.76V170.08C6.38,172.64,5.54,175.23,4.75,177.83Z"/><path class="cls-4" d="M9.52,163.75V339.18c.89,2.39,1.82,4.77,2.78,7.12V156.62Q10.86,160.16,9.52,163.75Z"/><path class="cls-5" d="M26.58,127.22V375.71c1.2,2.11,2.42,4.2,3.68,6.26V121C29,123,27.78,125.11,26.58,127.22Z"/><path class="cls-6" d="M32.57,117.25V385.68c1.2,1.9,2.43,3.79,3.68,5.65V111.59Q34.38,114.39,32.57,117.25Z"/><path class="cls-7" d="M51.4,91.28V411.65c1.45,1.77,2.94,3.51,4.45,5.23V86.05C54.34,87.77,52.85,89.51,51.4,91.28Z"/><path class="cls-8" d="M44.59,99.89V403c1.42,1.88,2.87,3.73,4.35,5.57V94.32Q46.72,97.07,44.59,99.89Z"/><path class="cls-9" d="M38.18,108.77V394.16q2,2.85,4,5.64V103.13Q40.15,105.92,38.18,108.77Z"/><path class="cls-10" d="M58,83.65V419.27c1.47,1.64,3,3.25,4.46,4.85V78.81C60.92,80.4,59.44,82,58,83.65Z"/><path class="cls-11" d="M80.32,61.63V441.29q2.21,1.92,4.45,3.79V57.85Q82.52,59.73,80.32,61.63Z"/><path class="cls-12" d="M87.91,55.31V447.62q2.2,1.77,4.45,3.5V51.81C90.86,53,89.38,54.12,87.91,55.31Z"/><path class="cls-13" d="M65.14,76V426.93c1.46,1.51,3,3,4.45,4.46V71.53C68.09,73,66.6,74.49,65.14,76Z"/><path class="cls-14" d="M72.73,68.52V434.41q2.2,2.07,4.45,4.1V64.42C75.68,65.77,74.2,67.13,72.73,68.52Z"/><path class="cls-15" d="M110.48,39.13V463.8c1.47.94,3,1.87,4.45,2.78V36.35C113.44,37.25,112,38.19,110.48,39.13Z"/><path class="cls-16" d="M118.07,34.49V468.43c1.47.87,3,1.72,4.45,2.56v-439C121,32.77,119.54,33.63,118.07,34.49Z"/><path class="cls-17" d="M95.3,49.58V453.35c1.47,1.1,3,2.18,4.45,3.25V46.33C98.26,47.39,96.77,48.48,95.3,49.58Z"/><path class="cls-18" d="M102.89,44.16V458.77c1.47,1,3,2,4.45,3V41.16C105.85,42.15,104.36,43.14,102.89,44.16Z"/><path class="cls-19" d="M140.93,22.59V480.34c1.48.68,3,1.33,4.46,2V20.61C143.9,21.26,142.41,21.91,140.93,22.59Z"/><path class="cls-20" d="M125.75,30.14V472.79c1.48.79,3,1.58,4.46,2.35V27.79Q128,28.95,125.75,30.14Z"/><path class="cls-21" d="M133.34,26.22V476.71q2.22,1.11,4.46,2.17V24.05Q135.57,25.12,133.34,26.22Z"/><path class="cls-22" d="M148.24,19.39V483.54c1.48.62,3,1.23,4.46,1.82V17.57C151.2,18.16,149.72,18.77,148.24,19.39Z"/><path class="cls-23" d="M171.11,11.1V491.83c1.48.45,3,.89,4.45,1.32V9.77C174.07,10.2,172.59,10.64,171.11,11.1Z"/><path class="cls-24" d="M155.93,16.33V486.6c1.48.56,3,1.11,4.46,1.65V14.68C158.89,15.22,157.41,15.77,155.93,16.33Z"/><path class="cls-25" d="M163.52,13.58V489.35c1.48.51,3,1,4.45,1.48V12.1C166.48,12.58,165,13.07,163.52,13.58Z"/><path class="cls-26" d="M193.58,5.31V497.62c1.48.31,3,.6,4.45.88V4.43C196.55,4.71,195.06,5,193.58,5.31Z"/><path class="cls-27" d="M178.4,9v485c1.48.41,3,.82,4.46,1.2V7.79C181.36,8.17,179.88,8.58,178.4,9Z"/><path class="cls-28" d="M186,7V495.9c1.48.36,3,.71,4.46,1V6C189,6.32,187.47,6.67,186,7Z"/><path class="cls-29" d="M200.89,3.88V499c1.48.27,3,.5,4.45.74V3.15C203.85,3.38,202.37,3.62,200.89,3.88Z"/><path class="cls-30" d="M223.75.91V502c1.48.13,3,.24,4.46.34V.57C226.72.67,225.23.78,223.75.91Z"/><path class="cls-31" d="M208.57,2.65V500.27c1.49.22,3,.44,4.46.63V2C211.54,2.22,210.06,2.44,208.57,2.65Z"/><path class="cls-32" d="M216.16,1.67V501.26c1.49.17,3,.34,4.46.48V1.18C219.13,1.33,217.65,1.49,216.16,1.67Z"/><path class="cls-33" d="M239.2.06V502.87c1.49,0,3,.05,4.46.06V0C242.17,0,240.69,0,239.2.06Z"/><path class="cls-34" d="M231.61.35V502.58c1.49.07,3,.13,4.46.18V.16C234.58.22,233.1.27,231.61.35Z"/><path class="cls-35" d="M491,305.19V197.74c-.69-3.16-1.42-6.31-2.23-9.43V314.62C489.56,311.5,490.29,308.35,491,305.19Z"/><path class="cls-36" d="M476.14,351.3V151.63q-1.49-3.42-3.07-6.79V358.09Q474.66,354.72,476.14,351.3Z"/><path class="cls-37" d="M470.25,363.91V139q-1.62-3.26-3.34-6.45V370.36Q468.64,367.17,470.25,363.91Z"/><path class="cls-38" d="M486.23,323.59V179.33q-1.19-4-2.5-7.94V331.54Q485.05,327.6,486.23,323.59Z"/><path class="cls-39" d="M481.46,338V164.92c-.88-2.42-1.82-4.82-2.78-7.21v187.5C479.64,342.82,480.58,340.43,481.46,338Z"/><path class="cls-40" d="M464.4,374.91V128c-1.2-2.13-2.42-4.23-3.68-6.32V381.22C462,379.14,463.2,377,464.4,374.91Z"/><path class="cls-41" d="M458.41,385V118q-1.8-2.86-3.68-5.69V390.66Q456.61,387.84,458.41,385Z"/><path class="cls-42" d="M439.58,411.11V91.82c-1.46-1.78-2.94-3.53-4.45-5.27V416.38Q437.4,413.77,439.58,411.11Z"/><path class="cls-43" d="M446.39,402.46v-302c-1.42-1.89-2.88-3.75-4.35-5.6V408.06C443.51,406.21,445,404.35,446.39,402.46Z"/><path class="cls-44" d="M452.8,393.52V109.41q-2-2.86-4-5.67V399.19Q450.83,396.39,452.8,393.52Z"/><path class="cls-45" d="M433,418.77V84.16c-1.46-1.64-2.94-3.27-4.45-4.87V423.64C430.06,422,431.54,420.41,433,418.77Z"/><path class="cls-46" d="M410.66,440.9V62q-2.21-1.92-4.45-3.8V444.7Q408.46,442.83,410.66,440.9Z"/><path class="cls-47" d="M403.07,447.26V55.67q-2.2-1.79-4.45-3.52V450.78Q400.87,449,403.07,447.26Z"/><path class="cls-48" d="M425.84,426.47v-350c-1.47-1.51-2.95-3-4.46-4.48V431C422.89,429.48,424.37,428,425.84,426.47Z"/><path class="cls-49" d="M418.25,434V68.93q-2.21-2.09-4.45-4.12V438.12Q416.05,436.08,418.25,434Z"/><path class="cls-50" d="M380.5,463.52V39.4c-1.47-.94-3-1.87-4.45-2.78V466.31C377.54,465.39,379,464.47,380.5,463.52Z"/><path class="cls-51" d="M372.91,468.17V34.76c-1.47-.87-3-1.73-4.45-2.57V470.74C370,469.9,371.44,469,372.91,468.17Z"/><path class="cls-52" d="M395.68,453V49.9q-2.21-1.65-4.46-3.25V456.28Q393.47,454.67,395.68,453Z"/><path class="cls-53" d="M388.09,458.46v-414c-1.47-1-3-2-4.46-3v420Q385.88,460,388.09,458.46Z"/><path class="cls-54" d="M350.05,480.13V22.79q-2.22-1-4.46-2V482.12Q347.83,481.15,350.05,480.13Z"/><path class="cls-55" d="M365.22,472.55V30.38c-1.47-.8-3-1.58-4.45-2.35V474.9C362.26,474.13,363.75,473.35,365.22,472.55Z"/><path class="cls-56" d="M357.63,476.49v-450c-1.47-.74-3-1.47-4.45-2.18V478.67C354.67,478,356.16,477.23,357.63,476.49Z"/><path class="cls-57" d="M342.74,483.36V19.57c-1.48-.62-3-1.22-4.46-1.82V485.18C339.77,484.58,341.26,484,342.74,483.36Z"/><path class="cls-58" d="M319.87,491.69V11.23c-1.48-.46-3-.89-4.45-1.32V493C316.9,492.59,318.39,492.15,319.87,491.69Z"/><path class="cls-59" d="M335.05,486.43V16.5c-1.48-.57-3-1.12-4.46-1.66V488.09C332.09,487.55,333.57,487,335.05,486.43Z"/><path class="cls-60" d="M327.46,489.19V13.73c-1.48-.51-3-1-4.46-1.48V490.68C324.5,490.2,326,489.7,327.46,489.19Z"/><path class="cls-61" d="M297.4,497.52V5.4c-1.48-.31-3-.6-4.46-.89v493.9C294.43,498.13,295.92,497.83,297.4,497.52Z"/><path class="cls-62" d="M312.58,493.82V9.1c-1.48-.41-3-.82-4.46-1.2V495C309.62,494.64,311.1,494.23,312.58,493.82Z"/><path class="cls-63" d="M305,495.79V7.13c-1.48-.36-3-.71-4.46-1V496.84C302,496.51,303.51,496.15,305,495.79Z"/><path class="cls-64" d="M290.09,499V4c-1.48-.27-3-.51-4.45-.75V499.71C287.12,499.47,288.61,499.23,290.09,499Z"/><path class="cls-65" d="M267.23,502V.94c-1.49-.12-3-.24-4.46-.34V502.33C264.26,502.23,265.74,502.11,267.23,502Z"/><path class="cls-66" d="M282.4,500.21V2.71c-1.48-.21-3-.43-4.45-.62V500.84C279.44,500.64,280.92,500.43,282.4,500.21Z"/><path class="cls-67" d="M274.82,501.21V1.72c-1.49-.18-3-.35-4.46-.5V501.7C271.85,501.56,273.33,501.38,274.82,501.21Z"/><path class="cls-68" d="M251.77,502.86V.06c-1.48,0-3,0-4.45,0V502.92C248.81,502.91,250.29,502.9,251.77,502.86Z"/><path class="cls-69" d="M259.36,502.55V.38c-1.48-.08-3-.14-4.45-.2V502.75C256.4,502.69,257.88,502.63,259.36,502.55Z"/><path class="cls-70" d="M0,195.69V307.24q1,4.54,2.23,9V186.66Q1,191.15,0,195.69Z"/></g><g id="continents"><path class="cls-71" d="M303.9,308.24c-2-.19-3.35.15-4,1s-.26,2.05-1,3-2,1.19-4,1V334.4a4.64,4.64,0,0,0,3-1c1.32-1.16,1-2.66,2-4,.67-.91,2-1.87,5-2Q304.4,317.79,303.9,308.24Z"/><path class="cls-71" d="M377.38,354q.51,15.9,1,31.8h10.06c.33-2,.67-4.08,1-6.12l13.08-1.22c3-.51,4.37.35,5,1.22,1.11,1.46.67,3.41,2,4.89a4,4,0,0,0,3,1.23q.5,9.16,1,18.34l4-1.22c-.11-.34-1.67-5.52,1-9.79a8.06,8.06,0,0,1,5-3.66,6,6,0,0,1,0-3.67c1.06-2.82,5.17-4.18,10.06-2.45v-9.78l5-2.45q.51-11.61,1-23.23h-6c1.65-5.67,1.13-10.61-1-12.23-1.1-.84-3-1.09-4,0s-.18,3.06-1,4.89c-1.59,3.51-8.54,4.37-10.06,1.22-.92-1.89.34-4.8,1-6.11a151.83,151.83,0,0,1-16.09,0c-.84-.08-2.81-.28-4,1.22a5.89,5.89,0,0,0-1,3.67c-2.35-.24-3.45.52-4,1.22-1.23,1.52-.59,3.49-2,4.89-1,1-1.66.32-3,1.23-1.87,1.25-1.85,3.36-3,4.89C384.42,354.07,382.31,355.22,377.38,354Z"/><path class="cls-71" d="M452,293.53a4.67,4.67,0,0,0-2.66.5c-3.11,1.57-4.31,6.12-4.43,6.6a4.79,4.79,0,0,1-4.45-.29,7,7,0,0,1-2.68-4.24q-8.49.87-17.09,1.49l-.9-4.9q-8.59.49-17.28.77V276.37c1.8-1.68,3-2.19,3.65-1.56,1.13,1.13-.22,5.32.91,6.44.63.63,1.85.08,3.64-1.6v-11.6a3.79,3.79,0,0,1-3.64-1.1c-2.15-2.37-2.48-8.5,0-14.31-2.7-.49-3.94.51-4.56,1.37-2.61,3.67.85,11.3-1.83,18.52a14.19,14.19,0,0,1-3.66,5.54,13,13,0,0,1,0,10.65c-1.93,3.89-6.08,5.26-9.18,2.15,1.82,4.45,1.54,9,0,10.85a2.42,2.42,0,0,1-3.68.39c-1-1.08-1.41-3.26-.92-5.38-2.16,1.32-3.34.58-3.69.32-2.2-1.62-3-7.95-.92-15.1-1.66,1.95-3.54,2.72-4.61,1.66s-.93-2.91-.93-6.9c0-3.82,0-5.73.93-7,1.06-1.47,3.25-2.17,4.61-.17a7,7,0,0,1,0,6.9l10.13-1.9q.47-6.8.92-13.57c-2.48,2.74-5.34,2.35-6.44.17a6.88,6.88,0,0,1,0-5.47,3.09,3.09,0,0,1,4.6-1.43c-.18-3.17.39-4.66.92-5.43,1.15-1.67,2.64-.82,3.67-2.71.84-1.53.14-2.62.92-4,1.27-2.26,3.86-.68,4.58-2.61.51-1.33-.5-2.68,0-4s2.3-1.41,3.66-1.23c2.12-4.41,1.84-9.48,0-11.86a4,4,0,0,0-3.66-1.53V207.58q2.74-.12,3.66,1.65c.91,1.73-.05,3.81.92,5.34s2.31.34,3.65,1.58c.84.78,1.69,2.5,1.82,6.63q3.64-.43,7.27-.82c.59-2.28.59-4,0-5.09-1.61-3.14-7-.35-8.18-3.25-.67-1.67.73-3.46,0-5.2s-2.85-1.89-4.56-1.74c-1.44-6.6-1-9.39,0-10.52,1.3-1.57,3.53-.15,4.56-2,.71-1.31.43-3.43,0-5.2a4,4,0,0,1,3.64,1.82c1.19,1.88.65,4.36,1.82,5.39,1,.89,2-.44,2.72.37.93,1,.28,4.07,0,6.37a37.05,37.05,0,0,0,.91,12.81c1,.61,2.57,1.26,3.63.32,1.38-1.25,1.16-4.56.9-8.7-.22-3.57-.55-9.11-.9-16.45-2.13.68-3.12.08-3.63-.58-1.3-1.67-.31-4.72-1.81-6.66-1-1.25-1.7-.4-2.73-1.74-1.35-1.76-.57-3.84-1.82-5.48s-2.52-.46-3.64-1.94c-.65-.87-1.11-2.45-.91-5.39-4,1.06-7.26-.15-8.23-2.82a6.25,6.25,0,0,1,0-4c1.3-3.64,6.82-3.33,13.69.13-.81-2.08-.77-4.22,0-5.15,1-1.19,2.77-.06,3.64.85,2.1,2.22,2.79,7.41,1.81,13.14a4.58,4.58,0,0,1,3.63,2,9.58,9.58,0,0,1,1.8,5.39c2.11,0,4.22,0,6.32.07,2.34-1.5,2.84-2.43,2.7-3.07-.32-1.48-4-.92-5.4-3.69-.89-1.74-.57-4.13,0-6.19,2.21,1.55,3.15,1.37,3.6.9.9-.94-.08-3.18.9-4.65s2.16,0,3.59-1.42c1.2-1.16.68-2.47,1.79-3.08,1.29-.7,2.45.81,3.58-.08a2.53,2.53,0,0,0,.89-2.08c-.15-1.3-1.92-3.46-9.85-6.76l-.9-5.18c-3.48.08-39-13.89-39.13-13.55,0,0-1.31-2.83-1.84-4.5q-8.73-2.73-17.52-5.13c.12-2.42-.61-4.77-1.85-6-.15-.15-1.58-1.48-2.77-.53s-1.5,3.1-.93,5.46q-9.25-1.65-18.54-2.85c.19-3.35-.4-5-.93-5.89-1.49-2.43-4.05-1.38-12.07-1.4-2.69,0-4.46,0-5.58-2-1-1.76-1-4.28-.93-5.93-3.16-3.67-6.75-3.49-8.35-.62a11.3,11.3,0,0,0-.93,5.83,4.45,4.45,0,0,0,1.85,1.58c1.4.53,2.22-.47,2.79.18.44.5.69,1.92,0,5.87-5.05-1.59-8.72-.33-9.28,2.45-.12.56-.25,2,.93,4.45-3,1.38-4.13.74-4.64-.16-.92-1.6.11-4.23-.93-5.93a2.16,2.16,0,0,0-3.71-.08c-1.22,1.63-1.36,5.06,0,7.37-1.85,0-3.7,0-5.55,0l-3.7-3c-1.32-3.79-1.28-5.28-.93-5.9.82-1.41,3.48,1.53,4.63,0,.45-.61.74-2.08,0-5.9-2.78-.51-5.55-1-8.32-1.41a8,8,0,0,0,0-4.43c-.85-2-2.88-1.11-7.38-1.23-4.88-.12-6.58-1.31-7.37.41-.26.58-.83,2.38.92,7.28,4.61-3.73,9.42-3.26,12,1a14.59,14.59,0,0,1,1.85,5.86c-2.11-1.9-4.56-.89-5.54,1.62a10.07,10.07,0,0,0,0,5.9c4.36-3,8-2.94,9.23-.19a8.27,8.27,0,0,1,0,5.9c-1.27,3-4.07,1.46-11.07,1.72s-9.44,1.94-11-.93c-1.12-2-1.12-5-.92-7.27q-11.46.8-22.81,2.3c.37,4.45-.21,6.4-.9,7.31-1.16,1.51-2.65.23-3.63,1.91s0,3.91-.9,5.85c-.52,1.17-1.7,2.23-4.51,2v12.79c1.8.72,3.61,1.46,5.41,2.22.33,1.46.55,3.2,0,4.29-1,1.9-3.36.09-4.51,1.92-.59.92-.9,2.84,0,7.11q-4.51-.25-9-.41l-.9-12.52q-3.59.51-7.14,1.08a12.88,12.88,0,0,1-2.67,6,5.26,5.26,0,0,1-3.55,1.93v13.71c2.83,1.94,3.94,1.52,4.44.8,1.22-1.76-.46-6.33.88-8.41.85-1.32,2.46-.93,3.57-.47q.45,6.9.89,13.83a2.53,2.53,0,0,1,2.69,1.13,7.55,7.55,0,0,1,.89,5.53q-6.27.54-12.48,1.2-.44,7.59-.88,15.17c.85-1,2.3-2.28,3.55-1.65,2.81,1.41,2.91,11.91.89,13.75-1.12,1-2.43-1-3.56.18s-1.09,4.28-.88,6.9c-1.29-.14-2.79,0-3.54,1.51-.87,1.68-.09,3.79-.89,5.46-.5,1.07-1.65,2-4.4,1.47V275.7a4.21,4.21,0,0,1,4.4,1.63c2,2.58,2.57,7.88.89,12.3,4.41.39,8.86.75,13.32,1.08-.06-.41-.65-4.28.9-6.92,1.77-3,5.38-2.87,7.17.41,1.55,2.85,1,6.71.9,7.12,2.18-1,3.14-.52,3.6.22.88,1.42,0,3.88.9,5.74a3.3,3.3,0,0,0,3.61,1.66q.45,25.05.9,50.15c.62-.31,2.48-1.12,3.63.42,1,1.37.94,3.86.9,5.86-.07,3.64-.12,8.79,0,15.82,1.73-.57,3.87-1,4.54.58a5.08,5.08,0,0,1,0,2.89c-.58,2.72-.93,7.92,0,18.79,4.25.6,8.5,1.12,12.78,1.55-.39-4.78.27-6.5.91-7.22,1.43-1.61,3.83.63,4.58-1.08.55-1.23-.48-2.95,0-4.39s2-1.73,4.59-1.16c-1.66-5.28-1.1-10.77.92-13.17a3.71,3.71,0,0,1,3.68-1.29q.46-7.35.92-14.69c1.54-.43,3.07-.88,4.61-1.33-.48-9.43-.77-14.82-.92-17.71-.51-9.77-.74-13.89.92-16.19a4.14,4.14,0,0,1,4.62-1.42,8.79,8.79,0,0,1,0-7.37c1.1-2.17,3.05-2.79,4.62-1.45-.15-.69-1.36-6.69.92-11.81a9.33,9.33,0,0,1,3.7-4.43,7,7,0,0,1,0-3,3.75,3.75,0,0,1,4.63-3v-11.8c-.46-.3-4.81-3.14-4.63-5.89.16-2.31,3.48-4.25,8.34-4.45a11,11,0,0,1,.93-5.9c1.27-2.32,3.55-3,5.56-1.48v-10.3a10,10,0,0,0-1.85-3c-4.18-4.37-9.05,2.11-12.05-1.49-2-2.36-2.65-8.49-.93-11.81a4.19,4.19,0,0,1,6.49-1.46c2.11,1.53,3.54,4.94,3.71,8.86l11.13.05,1.86,5.87a2.42,2.42,0,0,1,2.78,1.47,6.93,6.93,0,0,1,0,5.86c3.92-2.11,5.19-.62,5.58,0,.63,1,.58,2.27.93,5.84.3,3.15.67,5.67.93,7.28a3,3,0,0,1,2.78,1.42,8.53,8.53,0,0,1,.93,4.35c.13,6.9,0,14,0,16q4.65.6,9.29,1.14V256.13c.6-.21,1.22-.43,1.85-.68s1.26-.52,1.86-.79a11.59,11.59,0,0,1,1.86-5.75c2-2.7,5.34-2.81,7.41,0,1.95,2.61,1.87,6.5,1.86,7.08q2.31,2.1,4.63,4.17a12.56,12.56,0,0,1,2.77,4.16c2.12,5,1.07,10.39.93,18.18a98.1,98.1,0,0,0,.92,15.33,2.07,2.07,0,0,1,1.85-.14c2.15,1,3.35,6.42,2.77,13.66,1-1.63,2.68-1.8,3.69-.4a5.36,5.36,0,0,1,0,5.52,12.58,12.58,0,0,0,9.21.2c1.63-.62,4-1.89,4.59-.64.44.89-.4,2.3,0,4a3.63,3.63,0,0,0,1.84,2.4q11-2.42,21.89-5.15a6.76,6.76,0,0,0,0-3.81c-1-2.47-4.32-1.79-11.83-.58-2,.32-5.5.88-10.06,1.51-1.3-3.58-1.23-4.8-.92-5.24.43-.62,1.33.26,2.75-.36a4.85,4.85,0,0,0,1.83-1.58,6.12,6.12,0,0,1,0-4c.82-2,2.81-2.65,3.66-1.78,1.19,1.21-.25,4.89.92,6.46.89,1.2,2.81.42,4.56-.66a6.17,6.17,0,0,1,0-6.51,2.42,2.42,0,0,1,3.64-.49c1.29,1.13,1.75,3.78.91,6.31,5.45-3.06,7.43-2.55,8.17-1.32,1,1.66-.25,4.77.9,6.12,1,1.15,2.95.18,4.52-.85a6.41,6.41,0,0,1,0-6.19,2.42,2.42,0,0,1,3.6-.63c2.17,2.15-1.19,10.07.9,12,1,1,2.82.16,4.49-1-1.14-2.26-.93-4.94,0-6s2.77-.26,3.58.44a6.51,6.51,0,0,1,1.78,4.33q4-1,8-2c-2-4.71-1.74-9.59,0-11.46.92-1,2.55-1.49,3.54-.74,1.53,1.16.58,4.6,1.77,5.23.62.33,1.83-.12,4.4-3.27C455.52,298.78,453.75,296.19,452,293.53ZM283,210.67q-.51,3.69-1,7.37-14.73.89-29.28,2-2.51-7.16-5-14.24-7.48-1.09-14.92-2a6.89,6.89,0,0,1,0-4.23,3.28,3.28,0,0,1,5-1.76l1-5.75q7-1.22,14-2.34v7.23c3-.15,6-.28,9-.4-.34,4.31,1.56,7.26,3,7.19,1.28-.06,2.81-2.49,3-5.94a7.41,7.41,0,0,0,4.05-3c3.17-4.56,2.09-11.37,2-11.79q7.1-.22,14.21-.32a10.12,10.12,0,0,0,1,4.42,5,5,0,0,0,4.08,2.92,8.78,8.78,0,0,1,0,4.42c-1.52,5-9.27,6.16-19.31,3.23q-.51,5.9-1,11.76Zm7.12,47.15L284,241.6V223.92q5.07,13.23,10.18,26.52,1,5.91,2,11.81Z"/><path class="cls-72" d="M515.93,130.48v-8h56v8l-26,3h-4Zm28,115v11h-28v-8l26-3Zm-9.6-123h19.2c-.6,20.59-.6,41.39-.6,62v14c0,17,0,37.8.6,58h-19.2c.6-20.6.6-41.4.6-62v-10C534.93,163.47,534.93,142.68,534.33,122.48Zm83,96.39-2,37.6h-71.4v-10h64.4l-11,10,8-37.6Z"/><path class="cls-72" d="M624.33,130.48v-8h56v8l-26,3h-4Zm68.4,115c23,0,34.6-13,34.6-48.8V122.48h10v79.39c0,42-20.4,57.6-47.4,57.6-29,0-48.6-16.2-48.6-53.4v-21.6c0-20.6,0-41.4-.6-62h19.2c-.6,20.2-.6,41-.6,62v15.8C659.33,234.67,672.33,245.47,692.73,245.47Zm36-112-22-3v-8h48v8l-22,3Z"/><path class="cls-72" d="M869.33,236.67v11l-12.4,2.8,5-29.6h12.2l-.8,29c-12.6,6.8-26.4,9.6-40.4,9.6-40.4,0-67.6-29.2-67.6-70,0-40,28.4-70,67.4-70,10.8,0,25,1.79,38.6,9.59l.8,29h-12.2l-5-29.59,12.4,2.79v12.21c-11.4-10.6-22.6-14-32.2-14-27,0-48.8,21-48.8,60s19.6,60,47.4,60A55.39,55.39,0,0,0,869.33,236.67Z"/><path class="cls-72" d="M891.13,130.48v-8h28v11h-2Zm28,115v11h-28v-8l26-3Zm-9-61c0-20.6,0-41.4-.6-62h19.2c-.6,20.2-.6,41-.6,62v7c0,23.6,0,44.4.6,65h-19.2c.6-20.2.6-41,.6-62Zm9-1.8h19.8c24.59,0,35.2-7.8,35.2-26.19s-10.61-24.8-31.2-24.8h-23.8v-9.2h29.59c27.41,0,43.4,13.59,43.4,32.79,0,15.6-10.8,29.4-37.4,32.6v-1.8c31.21,2.6,44,16.6,44,33.8,0,18.2-15,36.6-52.79,36.6h-26.8v-9.2h22c26,0,38.59-9.8,38.59-27.4,0-18.6-12.2-28-40.19-28h-20.4Z"/><path class="cls-72" d="M1137.52,189.47c0,43.8-30,70-61,70s-61.19-24.4-61.19-70c0-43.79,30.39-70,61.19-70S1137.52,143.87,1137.52,189.47Zm-61,60c28.2,0,40-30,40-60s-11.8-60-40-60-40.19,30-40.19,60S1048.33,249.47,1076.52,249.47Z"/><path class="cls-72" d="M1151.12,130.48v-8h56v8l-26,3h-4Zm28,115v11h-28v-8l26-3Zm-9.6-123h19.2c-.6,20.59-.6,41.39-.6,62v14c0,17,0,37.8.6,58h-19.2c.6-20.6.6-41.4.6-62v-10C1170.12,163.47,1170.12,142.68,1169.52,122.48Zm83,96.39-2,37.6h-71.4v-10h64.4l-11,10,8-37.6Z"/><path class="cls-72" d="M548.43,349c-5.52,2.88-11,4.72-17.6,4.72-16,0-26.88-11.92-26.88-28s11-28,27.2-28c6.64,0,11.6,1.2,16.08,3.84l.32,11.6h-4.88l-2-11.84,5,1.6v4.56c-4.32-4-8.72-5.76-13.84-5.76-11.2,0-19.44,8.72-19.44,24s7.52,23.92,20,23.92c4.56,0,7.92-1,12.48-3.28l-3.6,3.76v-4.64c0-6.08-.08-12.32-.24-18.4h7.68c-.16,6-.24,12.16-.24,18.4Zm-15.76-18.72V327h20.8v3.2l-8.8.8h-1.6Z"/><path class="cls-72" d="M557.47,302.07v-3.2h22.4v3.2l-10.4,1.2h-1.6Zm11.2,46v4.4h-11.2v-3.2l10.4-1.2Zm-3.84-49.2h7.68c-.24,8.24-.24,16.56-.24,24.8v5.6c0,6.8,0,15.12.24,23.2h-7.68c.24-8.24.24-16.56.24-24.8v-4C565.07,315.27,565.07,307,564.83,298.87ZM598,337.43l-.8,15H568.67v-4h25.76l-4.4,4,3.2-15Z"/><path class="cls-72" d="M652.75,325.67c0,17.52-12,28-24.4,28s-24.48-9.76-24.48-28c0-17.52,12.16-28,24.48-28S652.75,307.43,652.75,325.67Zm-24.4,24c11.28,0,16-12,16-24s-4.72-24-16-24-16.08,12-16.08,24S617.07,349.67,628.35,349.67Z"/><path class="cls-72" d="M658.19,302.07v-3.2h11.2v4.4h-.8Zm11.2,46v4.4h-11.2v-3.2l10.4-1.2Zm-3.6-24.4c0-8.24,0-16.56-.24-24.8h7.68c-.24,8.08-.24,16.4-.24,24.8v2.8c0,9.44,0,17.76.24,26h-7.68c.24-8.08.24-16.4.24-24.8Zm3.6-.72h7.92c9.84,0,14.08-3.12,14.08-10.48s-4.24-9.92-12.48-9.92h-9.52v-3.68h11.84c11,0,17.36,5.44,17.36,13.12,0,6.24-4.32,11.76-15,13v-.72c12.48,1,17.6,6.64,17.6,13.52,0,7.28-6,14.64-21.12,14.64H669.39v-3.68h8.8c10.4,0,15.44-3.92,15.44-11,0-7.44-4.88-11.2-16.08-11.2h-8.16Z"/><path class="cls-72" d="M702.83,349.27l8-1.2h1.6l8.8,1.2v3.2h-18.4Zm23.84-50.8h4.8l18.4,54h-7.44l-16.08-47.92h1.84l-16.32,47.92h-3.76Zm-9.36,32.8h21.6l1.28,3.68H716Zm15.76,18,10.08-1.2h1.6l9.92,1.2v3.2h-21.6Z"/><path class="cls-72" d="M758.27,302.07v-3.2h22.4v3.2l-10.4,1.2h-1.6Zm11.2,46v4.4h-11.2v-3.2l10.4-1.2Zm-3.84-49.2h7.68c-.24,8.24-.24,16.56-.24,24.8v5.6c0,6.8,0,15.12.24,23.2h-7.68c.24-8.24.24-16.56.24-24.8v-4C765.87,315.27,765.87,307,765.63,298.87Zm33.2,38.56-.8,15H769.47v-4h25.76l-4.4,4,3.2-15Z"/><path class="cls-72" d="M824.59,302.87l3.6-4-2.56,14.24h-4.48l.64-14.24h43.68l.64,14.24h-4.48l-2.56-14.24,3.6,4Zm19.84,45.2,11.2,1.2v3.2h-24v-3.2l11.2-1.2Zm-4.4-24.4c0-8.24,0-16.56-.24-24.8h7.68c-.24,8.08-.24,16.4-.24,24.8v4c0,8.24,0,16.56.24,24.8h-7.68c.24-8.08.24-16.4.24-24.8Z"/><path class="cls-72" d="M871.31,302.07v-3.2h11.2v4.4h-.8Zm12,46,10.4,1.2v3.2h-22.4v-3.2l10.4-1.2Zm-4.4-24.4c0-8.24,0-16.56-.24-24.8h7.68c-.24,8.32-.24,16.16-.24,25.6v2.4c0,9,0,17.36.24,25.6h-7.68c.24-8.08.24-16.4.24-24.8Zm3.6.4h10c8.64,0,12.8-4.64,12.8-11.12,0-6.72-3.6-10.4-11.92-10.4H882.51v-3.68h11c12.24,0,19.44,5.2,19.44,14.08,0,6.8-5.36,13-15.84,13.84l.24-.64c5.76.56,9.28,3.2,11.44,10.4l3.92,13.28-2.48-1.52,8.24,1v3.2a18.43,18.43,0,0,1-5.76.8c-5,0-7.12-1.28-8.08-5l-3.28-13c-1.6-6.48-4.56-7.6-11.2-7.6h-7.6Z"/><path class="cls-72" d="M920.83,349.27l8-1.2h1.6l8.8,1.2v3.2h-18.4Zm23.84-50.8h4.8l18.4,54h-7.44l-16.08-47.92h1.84l-16.32,47.92h-3.76Zm-9.36,32.8h21.6l1.28,3.68H934Zm15.76,18,10.08-1.2h1.6l9.92,1.2v3.2h-21.6Z"/><path class="cls-72" d="M975.87,349.27l8.4-1.2h1.6l9.2,1.2v3.2h-19.2Zm5-47.92,5,1.92-9.61-1.2v-3.2h12l33.2,45.68V353h-2.56Zm1.76-2.48,4,3.2v50.4h-4Zm26.4,0h19.2v3.2l-8,1.2h-1.6l-9.6-1.2Zm8.4,0h4V353l-4-4Z"/><path class="cls-72" d="M1061.79,339.91c0-5.2-3.12-7.52-10.08-10.24l-3-1.2c-8.16-3.2-13.76-7.84-13.76-16,0-9.2,7.76-14.8,17.92-14.8a21.2,21.2,0,0,1,13,4.24l-.48,10.4h-4.8l-2.24-12.08,5.12,2.64v4c-3.92-3.84-6.88-5.2-11.12-5.2-6.24,0-11,3.12-11,9.12,0,5,3.28,8,9.12,10.24l3.12,1.2c10.56,4.08,14.64,8.72,14.64,16.24,0,9.44-7.92,15.2-18.88,15.2a30.65,30.65,0,0,1-15.52-4.24l.48-11.2h4.8l2.08,12.32-5.2-2.24v-3.84c5,3.6,7.68,5.2,13.12,5.2C1056.75,349.67,1061.79,346.15,1061.79,339.91Z"/><path class="cls-72" d="M1074.26,302.07v-3.2h11.21v4.4h-.8Zm12,46,10.4,1.2v3.2h-22.41v-3.2l10.41-1.2Zm-4.4-24.4c0-8.24,0-16.56-.24-24.8h7.68c-.24,8.08-.24,16.4-.24,24.8v4.88c0,8.16,0,15.68.24,23.92h-7.68c.24-8.08.24-16.4.24-24.8Zm11.52,7.6h-7.92v-3.68h9.12c9.84,0,13.68-5.2,13.68-12.8,0-7.76-4.32-12.24-14-12.24h-8.8v-3.68h10.32c13.28,0,20.08,6.56,20.08,15.92C1115.87,323.75,1109.71,331.27,1093.39,331.27Z"/><path class="cls-72" d="M1170.43,325.67c0,17.52-12,28-24.4,28s-24.48-9.76-24.48-28c0-17.52,12.16-28,24.48-28S1170.43,307.43,1170.43,325.67Zm-24.4,24c11.28,0,16-12,16-24s-4.72-24-16-24-16.08,12-16.08,24S1134.75,349.67,1146,349.67Z"/><path class="cls-72" d="M1175.86,302.07v-3.2h11.21v4.4h-.81Zm12,46,10.4,1.2v3.2h-22.41v-3.2l10.4-1.2Zm-4.4-24.4c0-8.24,0-16.56-.25-24.8h7.69c-.24,8.32-.24,16.16-.24,25.6v2.4c0,9,0,17.36.24,25.6h-7.69c.25-8.08.25-16.4.25-24.8Zm3.6.4h10c8.64,0,12.8-4.64,12.8-11.12,0-6.72-3.6-10.4-11.92-10.4h-10.88v-3.68h11c12.24,0,19.44,5.2,19.44,14.08,0,6.8-5.36,13-15.84,13.84l.24-.64c5.76.56,9.28,3.2,11.44,10.4l3.92,13.28-2.48-1.52,8.24,1v3.2a18.43,18.43,0,0,1-5.76.8c-5,0-7.12-1.28-8.08-5l-3.28-13c-1.6-6.48-4.56-7.6-11.2-7.6h-7.6Z"/><path class="cls-72" d="M1226.82,302.87l3.6-4-2.56,14.24h-4.48l.64-14.24h43.68l.65,14.24h-4.49l-2.56-14.24,3.6,4Zm19.84,45.2,11.2,1.2v3.2h-24v-3.2l11.2-1.2Zm-4.4-24.4c0-8.24,0-16.56-.24-24.8h7.68c-.24,8.08-.24,16.4-.24,24.8v4c0,8.24,0,16.56.24,24.8H1242c.24-8.08.24-16.4.24-24.8Z"/><path class="cls-73" d="M515.93,130.48v-8h56v8l-26,3h-4Zm28,115v11h-28v-8l26-3Zm-9.6-123h19.2c-.6,20.59-.6,41.39-.6,62v14c0,17,0,37.8.6,58h-19.2c.6-20.6.6-41.4.6-62v-10C534.93,163.47,534.93,142.68,534.33,122.48Zm83,96.39-2,37.6h-71.4v-10h64.4l-11,10,8-37.6Z"/><path class="cls-73" d="M624.33,130.48v-8h56v8l-26,3h-4Zm68.4,115c23,0,34.6-13,34.6-48.8V122.48h10v79.39c0,42-20.4,57.6-47.4,57.6-29,0-48.6-16.2-48.6-53.4v-21.6c0-20.6,0-41.4-.6-62h19.2c-.6,20.2-.6,41-.6,62v15.8C659.33,234.67,672.33,245.47,692.73,245.47Zm36-112-22-3v-8h48v8l-22,3Z"/><path class="cls-73" d="M869.33,236.67v11l-12.4,2.8,5-29.6h12.2l-.8,29c-12.6,6.8-26.4,9.6-40.4,9.6-40.4,0-67.6-29.2-67.6-70,0-40,28.4-70,67.4-70,10.8,0,25,1.79,38.6,9.59l.8,29h-12.2l-5-29.59,12.4,2.79v12.21c-11.4-10.6-22.6-14-32.2-14-27,0-48.8,21-48.8,60s19.6,60,47.4,60A55.39,55.39,0,0,0,869.33,236.67Z"/><path class="cls-73" d="M891.13,130.48v-8h28v11h-2Zm28,115v11h-28v-8l26-3Zm-9-61c0-20.6,0-41.4-.6-62h19.2c-.6,20.2-.6,41-.6,62v7c0,23.6,0,44.4.6,65h-19.2c.6-20.2.6-41,.6-62Zm9-1.8h19.8c24.59,0,35.2-7.8,35.2-26.19s-10.61-24.8-31.2-24.8h-23.8v-9.2h29.59c27.41,0,43.4,13.59,43.4,32.79,0,15.6-10.8,29.4-37.4,32.6v-1.8c31.21,2.6,44,16.6,44,33.8,0,18.2-15,36.6-52.79,36.6h-26.8v-9.2h22c26,0,38.59-9.8,38.59-27.4,0-18.6-12.2-28-40.19-28h-20.4Z"/><path class="cls-73" d="M1137.52,189.47c0,43.8-30,70-61,70s-61.19-24.4-61.19-70c0-43.79,30.39-70,61.19-70S1137.52,143.87,1137.52,189.47Zm-61,60c28.2,0,40-30,40-60s-11.8-60-40-60-40.19,30-40.19,60S1048.33,249.47,1076.52,249.47Z"/><path class="cls-73" d="M1151.12,130.48v-8h56v8l-26,3h-4Zm28,115v11h-28v-8l26-3Zm-9.6-123h19.2c-.6,20.59-.6,41.39-.6,62v14c0,17,0,37.8.6,58h-19.2c.6-20.6.6-41.4.6-62v-10C1170.12,163.47,1170.12,142.68,1169.52,122.48Zm83,96.39-2,37.6h-71.4v-10h64.4l-11,10,8-37.6Z"/><path class="cls-73" d="M548.43,349c-5.52,2.88-11,4.72-17.6,4.72-16,0-26.88-11.92-26.88-28s11-28,27.2-28c6.64,0,11.6,1.2,16.08,3.84l.32,11.6h-4.88l-2-11.84,5,1.6v4.56c-4.32-4-8.72-5.76-13.84-5.76-11.2,0-19.44,8.72-19.44,24s7.52,23.92,20,23.92c4.56,0,7.92-1,12.48-3.28l-3.6,3.76v-4.64c0-6.08-.08-12.32-.24-18.4h7.68c-.16,6-.24,12.16-.24,18.4Zm-15.76-18.72V327h20.8v3.2l-8.8.8h-1.6Z"/><path class="cls-73" d="M557.47,302.07v-3.2h22.4v3.2l-10.4,1.2h-1.6Zm11.2,46v4.4h-11.2v-3.2l10.4-1.2Zm-3.84-49.2h7.68c-.24,8.24-.24,16.56-.24,24.8v5.6c0,6.8,0,15.12.24,23.2h-7.68c.24-8.24.24-16.56.24-24.8v-4C565.07,315.27,565.07,307,564.83,298.87ZM598,337.43l-.8,15H568.67v-4h25.76l-4.4,4,3.2-15Z"/><path class="cls-73" d="M652.75,325.67c0,17.52-12,28-24.4,28s-24.48-9.76-24.48-28c0-17.52,12.16-28,24.48-28S652.75,307.43,652.75,325.67Zm-24.4,24c11.28,0,16-12,16-24s-4.72-24-16-24-16.08,12-16.08,24S617.07,349.67,628.35,349.67Z"/><path class="cls-73" d="M658.19,302.07v-3.2h11.2v4.4h-.8Zm11.2,46v4.4h-11.2v-3.2l10.4-1.2Zm-3.6-24.4c0-8.24,0-16.56-.24-24.8h7.68c-.24,8.08-.24,16.4-.24,24.8v2.8c0,9.44,0,17.76.24,26h-7.68c.24-8.08.24-16.4.24-24.8Zm3.6-.72h7.92c9.84,0,14.08-3.12,14.08-10.48s-4.24-9.92-12.48-9.92h-9.52v-3.68h11.84c11,0,17.36,5.44,17.36,13.12,0,6.24-4.32,11.76-15,13v-.72c12.48,1,17.6,6.64,17.6,13.52,0,7.28-6,14.64-21.12,14.64H669.39v-3.68h8.8c10.4,0,15.44-3.92,15.44-11,0-7.44-4.88-11.2-16.08-11.2h-8.16Z"/><path class="cls-73" d="M702.83,349.27l8-1.2h1.6l8.8,1.2v3.2h-18.4Zm23.84-50.8h4.8l18.4,54h-7.44l-16.08-47.92h1.84l-16.32,47.92h-3.76Zm-9.36,32.8h21.6l1.28,3.68H716Zm15.76,18,10.08-1.2h1.6l9.92,1.2v3.2h-21.6Z"/><path class="cls-73" d="M758.27,302.07v-3.2h22.4v3.2l-10.4,1.2h-1.6Zm11.2,46v4.4h-11.2v-3.2l10.4-1.2Zm-3.84-49.2h7.68c-.24,8.24-.24,16.56-.24,24.8v5.6c0,6.8,0,15.12.24,23.2h-7.68c.24-8.24.24-16.56.24-24.8v-4C765.87,315.27,765.87,307,765.63,298.87Zm33.2,38.56-.8,15H769.47v-4h25.76l-4.4,4,3.2-15Z"/><path class="cls-73" d="M824.59,302.87l3.6-4-2.56,14.24h-4.48l.64-14.24h43.68l.64,14.24h-4.48l-2.56-14.24,3.6,4Zm19.84,45.2,11.2,1.2v3.2h-24v-3.2l11.2-1.2Zm-4.4-24.4c0-8.24,0-16.56-.24-24.8h7.68c-.24,8.08-.24,16.4-.24,24.8v4c0,8.24,0,16.56.24,24.8h-7.68c.24-8.08.24-16.4.24-24.8Z"/><path class="cls-73" d="M871.31,302.07v-3.2h11.2v4.4h-.8Zm12,46,10.4,1.2v3.2h-22.4v-3.2l10.4-1.2Zm-4.4-24.4c0-8.24,0-16.56-.24-24.8h7.68c-.24,8.32-.24,16.16-.24,25.6v2.4c0,9,0,17.36.24,25.6h-7.68c.24-8.08.24-16.4.24-24.8Zm3.6.4h10c8.64,0,12.8-4.64,12.8-11.12,0-6.72-3.6-10.4-11.92-10.4H882.51v-3.68h11c12.24,0,19.44,5.2,19.44,14.08,0,6.8-5.36,13-15.84,13.84l.24-.64c5.76.56,9.28,3.2,11.44,10.4l3.92,13.28-2.48-1.52,8.24,1v3.2a18.43,18.43,0,0,1-5.76.8c-5,0-7.12-1.28-8.08-5l-3.28-13c-1.6-6.48-4.56-7.6-11.2-7.6h-7.6Z"/><path class="cls-73" d="M920.83,349.27l8-1.2h1.6l8.8,1.2v3.2h-18.4Zm23.84-50.8h4.8l18.4,54h-7.44l-16.08-47.92h1.84l-16.32,47.92h-3.76Zm-9.36,32.8h21.6l1.28,3.68H934Zm15.76,18,10.08-1.2h1.6l9.92,1.2v3.2h-21.6Z"/><path class="cls-73" d="M975.87,349.27l8.4-1.2h1.6l9.2,1.2v3.2h-19.2Zm5-47.92,5,1.92-9.61-1.2v-3.2h12l33.2,45.68V353h-2.56Zm1.76-2.48,4,3.2v50.4h-4Zm26.4,0h19.2v3.2l-8,1.2h-1.6l-9.6-1.2Zm8.4,0h4V353l-4-4Z"/><path class="cls-73" d="M1061.79,339.91c0-5.2-3.12-7.52-10.08-10.24l-3-1.2c-8.16-3.2-13.76-7.84-13.76-16,0-9.2,7.76-14.8,17.92-14.8a21.2,21.2,0,0,1,13,4.24l-.48,10.4h-4.8l-2.24-12.08,5.12,2.64v4c-3.92-3.84-6.88-5.2-11.12-5.2-6.24,0-11,3.12-11,9.12,0,5,3.28,8,9.12,10.24l3.12,1.2c10.56,4.08,14.64,8.72,14.64,16.24,0,9.44-7.92,15.2-18.88,15.2a30.65,30.65,0,0,1-15.52-4.24l.48-11.2h4.8l2.08,12.32-5.2-2.24v-3.84c5,3.6,7.68,5.2,13.12,5.2C1056.75,349.67,1061.79,346.15,1061.79,339.91Z"/><path class="cls-73" d="M1074.26,302.07v-3.2h11.21v4.4h-.8Zm12,46,10.4,1.2v3.2h-22.41v-3.2l10.41-1.2Zm-4.4-24.4c0-8.24,0-16.56-.24-24.8h7.68c-.24,8.08-.24,16.4-.24,24.8v4.88c0,8.16,0,15.68.24,23.92h-7.68c.24-8.08.24-16.4.24-24.8Zm11.52,7.6h-7.92v-3.68h9.12c9.84,0,13.68-5.2,13.68-12.8,0-7.76-4.32-12.24-14-12.24h-8.8v-3.68h10.32c13.28,0,20.08,6.56,20.08,15.92C1115.87,323.75,1109.71,331.27,1093.39,331.27Z"/><path class="cls-73" d="M1170.43,325.67c0,17.52-12,28-24.4,28s-24.48-9.76-24.48-28c0-17.52,12.16-28,24.48-28S1170.43,307.43,1170.43,325.67Zm-24.4,24c11.28,0,16-12,16-24s-4.72-24-16-24-16.08,12-16.08,24S1134.75,349.67,1146,349.67Z"/><path class="cls-73" d="M1175.86,302.07v-3.2h11.21v4.4h-.81Zm12,46,10.4,1.2v3.2h-22.41v-3.2l10.4-1.2Zm-4.4-24.4c0-8.24,0-16.56-.25-24.8h7.69c-.24,8.32-.24,16.16-.24,25.6v2.4c0,9,0,17.36.24,25.6h-7.69c.25-8.08.25-16.4.25-24.8Zm3.6.4h10c8.64,0,12.8-4.64,12.8-11.12,0-6.72-3.6-10.4-11.92-10.4h-10.88v-3.68h11c12.24,0,19.44,5.2,19.44,14.08,0,6.8-5.36,13-15.84,13.84l.24-.64c5.76.56,9.28,3.2,11.44,10.4l3.92,13.28-2.48-1.52,8.24,1v3.2a18.43,18.43,0,0,1-5.76.8c-5,0-7.12-1.28-8.08-5l-3.28-13c-1.6-6.48-4.56-7.6-11.2-7.6h-7.6Z"/><path class="cls-73" d="M1226.82,302.87l3.6-4-2.56,14.24h-4.48l.64-14.24h43.68l.65,14.24h-4.49l-2.56-14.24,3.6,4Zm19.84,45.2,11.2,1.2v3.2h-24v-3.2l11.2-1.2Zm-4.4-24.4c0-8.24,0-16.56-.24-24.8h7.68c-.24,8.08-.24,16.4-.24,24.8v4c0,8.24,0,16.56.24,24.8H1242c.24-8.08.24-16.4.24-24.8Z"/></g></g><g id="letter"><path class="cls-71" d="M226.48,102.47c-26.56-5-54.31-5.11-82.27-.8l-2,5.57c0-.1-21.79,9.63-34.81,8.82.22,2.9-.4,4.41-1,5.25-2.18,3-6.37.6-9.19,3.84a10,10,0,0,0-2,5.46A374.27,374.27,0,0,0,45.82,149c1,2.62.63,4.21,0,5.18C44,156.89,39.2,155.91,37,159.1a6.42,6.42,0,0,0-1,4.42c-3.26,1.76-6.52,3.56-9.74,5.39v14.16Q33,180.42,39.9,178c.33-1.8.65-3.6,1-5.42q6.9-2.58,13.87-4.94c4.57,8.93,4.57,19.28,0,24.69a12,12,0,0,1-4,3.1v15.86l5-.88q.49,8,1,16c1.66-.8,2.6-.52,3-.33,2.07.94,2.81,5.42,1,10.86,3.1-1.32,4.42-1,5-.34,1.18,1.33-.34,4.16,1,5.53,1.09,1.14,2.72-.11,4,1,1,.83,1.35,2.73,1,5.65,5-3.39,10.34-3.49,13.15-.31a9,9,0,0,1,2,4.71c5.46-1.15,7.44-.18,8.13,1.14.78,1.48-.06,3.37,1,4.86,1,1.31,2.72,1.4,4.08,1.24l2,6.18,10.22.2a4.74,4.74,0,0,1-1,5,2.92,2.92,0,0,1-4.09-.12v31.12q2.06,1.42,4.09,2.87v10q5.11,1.81,10.24,3.59v51.06c3.06-.78,4.45.14,5.12.88,1.79,2,1.19,5.72,1,15.63-.06,3.87,0,7,0,9,2,.15,3.4.83,4.1,2.07,1.19,2.08-.16,4.58,1,6.67.71,1.24,2.07,1.93,4.1,2.05.68,1.42,1.36,2.85,2,4.27,4.77.83,9.55,1.53,14.31,2.1,1.42-.81,2.1-1.62,2-2.42-.14-1.86-4.22-3.55-12.26-5.56v-31.5q5.12,0,10.22-.26c-1.85-4.83-1.23-9.75,1-11.84a4.63,4.63,0,0,1,4.08-1l1-5.26c1.7-.34,3.39-.69,5.09-1.05-1.2-7.59-.23-10.64,1-12,.89-.95,2.55-1.7,3.05-3.89a6.47,6.47,0,0,0,0-2.68,4.29,4.29,0,0,0,4.06-1.23c3.65-4.08-.38-15.89,3-18.69,1.09-.89,2-.06,3-1.31,1.51-1.75,1.39-5.25,1-8V295.56l-7.08-6.74-3.55-3.38c-3.42,2.35-7,1.8-8.64-.79a7.39,7.39,0,0,1-1-4l-5.1-2.74-1-4-4.09-4c-1-1.34-2-2.66-3.06-4a5,5,0,0,1-7.16-1.37,8.5,8.5,0,0,1-1-5.23c-9.69,2.51-13.19.95-14.33-1.33-.8-1.61-.58-3.84-2-5.11s-3.52-.69-5.12,0q-.51,3.17-1,6.32a18,18,0,0,0-7.16,0c-1.53.31-2.84.8-4.08,0a5.88,5.88,0,0,1-2-3.71l-.51-8-3.57-.54c-.34-3.66-.68-7.3-1-10.94-4-1.9-5.55-1.7-6.11-.91-1,1.37,1.16,4.51,0,6a2.31,2.31,0,0,1-3.05.11,4.06,4.06,0,0,1-1-4.71l-4.06.22a3.66,3.66,0,0,1-1-4.64A2.88,2.88,0,0,1,86,230.63q1-6,2-12.06,8.64-.82,17.33-1.53c0,1.55-.06,3.21,0,5,.08,2.46.26,4.73.51,6.79a3.49,3.49,0,0,0-4.6,2.1,4.21,4.21,0,0,0,.51,3.05,7.63,7.63,0,0,1,7.67,1.52,11,11,0,0,1,3.06,6.16l15.88-2.32a7.07,7.07,0,0,0-.52-3.21c-1.67-3.81-7.45-4.67-14.33-2.05-4-9.61-3.94-19.09,0-23.92a9.29,9.29,0,0,1,4.09-2.87,6.2,6.2,0,0,1,1-3.89c1.36-1.82,3.51-1.27,4.09-2.91.36-1-.34-1.5,0-2.56.56-1.73,2.62-1.08,4.1-2.93,1.71-2.15.4-4.89,2.05-6.63,1.41-1.5,3.1-.25,4.09-1.67.85-1.2.51-3.36,0-5.19q7.68-.74,15.35-1.26V167c3.75,1.9,5.62,2.9,5.62,2.9s.18,1.14.51,3.28q5.1.35,10.19.81V151.33c-3.26,1.55-4.53,1-5.09.3-1-1.3,0-3.63-1-5.25s-3.36-1.4-5.1-.93v-5.3c3.19.26,4.51-.68,5.1-1.75.92-1.69,0-3.7,1-5.4.87-1.47,2.59-1.71,4.07-1.61.82-3.3.51-4.7,0-5.34-1-1.29-2.92.35-4.07-1s-.1-3.3-1-5.23c-.78-1.62-2.41-2.17-4.08-2.27-.68-1.69-1.36-3.39-2-5.07l1-4.09c6.28-4.64,12.07-4.83,14.26-1.25a7.87,7.87,0,0,1,1,4c3.39.25,6.76.57,10.13,1q.51,4.68,1,9.36c0,2-.16,4.5-1.22,5.16-1.32.82-3-1.84-3.83-1s-.37,3.85,1,5.32c1.05,1.12,2,.51,3,1.28s2,2.67,2,8c2.7-.47,5.38-.91,8.06-1.31a11.16,11.16,0,0,1,2-6.66,5.67,5.67,0,0,1,8-1.05c.66-1.75,1.33-3.49,2-5.23,2.66.15,5.3.35,7.94.58l1,13.37c3,.25,5.92.54,8.85.87a10.7,10.7,0,0,1,2-6.35,5.26,5.26,0,0,1,3.91-2.09c.61-2.32.32-3.39,0-3.93-1.55-2.65-7,1.84-9.79-1.28-1.14-1.28-1.41-3.39-1.48-4.79v-8c2,0,4.34-.41,5.4-2.61,1-2,0-3.82,1-5.13,2-2.72,8,2.18,8.77.2a2.6,2.6,0,0,0,0-1.3A5.44,5.44,0,0,0,226.48,102.47Z"/></g></g></g></g></svg>